<svg xmlns="http://www.w3.org/2000/svg" viewBox="0 0 26 26"><path fill="#b3d2cb" class="cls-1" d="M18.6 26H7.4C3.32 26 0 22.68 0 18.6V7.4C0 3.32 3.32 0 7.4 0h11.2C22.68 0 26 3.32 26 7.4v11.2c0 4.08-3.32 7.4-7.4 7.4zM7.4 2.23c-2.85 0-5.17 2.32-5.17 5.17v11.2c0 2.85 2.32 5.17 5.17 5.17h11.2c2.85 0 5.17-2.32 5.17-5.17V7.4c0-2.85-2.32-5.17-5.17-5.17H7.4z"/><path fill="#b3d2cb" class="cls-1" d="M13 19.66c-3.67 0-6.66-2.99-6.66-6.66S9.33 6.34 13 6.34s6.66 2.99 6.66 6.66-2.99 6.66-6.66 6.66zm0-11.09c-2.44 0-4.43 1.99-4.43 4.43s1.99 4.43 4.43 4.43 4.43-1.99 4.43-4.43S15.44 8.57 13 8.57zM21.54 5.96c0 .88-.72 1.6-1.6 1.6s-1.6-.72-1.6-1.6.72-1.6 1.6-1.6 1.6.72 1.6 1.6z"/></svg>