<svg xmlns="http://www.w3.org/2000/svg" xmlns:xlink="http://www.w3.org/1999/xlink">
  <defs>
    <style>
      .sprite-symbol-usage {
        display: none;
      }

      .sprite-symbol-usage:target {
        display: inline;
      }
    </style>
  </defs><svg viewBox="0 0 40 40" id="dailymotion" class="sprite-symbol-usage">
    <path fill="#d9e8e5" d="M23.46,18.86a5.16,5.16,0,1,0,.24,10.32,4.94,4.94,0,0,0,4.87-5.06A5.09,5.09,0,0,0,23.46,18.86Zm11,15.78h-6V32.3a8.11,8.11,0,0,1-6.2,2.45,9.46,9.46,0,0,1-6.54-2.45,10.89,10.89,0,0,1-.31-16,9.69,9.69,0,0,1,7-2.88,7,7,0,0,1,5.88,2.65V6.93l6.16-1.27v29ZM0,40H40V0H0Z" />
  </svg><svg viewBox="0 0 40 40" id="facebook" class="sprite-symbol-usage">
    <path fill="#d9e8e5" d="M37.79,0H2.21A2.21,2.21,0,0,0,0,2.21V37.79A2.21,2.21,0,0,0,2.21,40H21.36V24.51H16.15v-6h5.21V14c0-5.17,3.16-8,7.77-8a41,41,0,0,1,4.66.24v5.4h-3.2c-2.51,0-3,1.19-3,2.94v3.85h6l-.78,6H27.6V40H37.79A2.21,2.21,0,0,0,40,37.79V2.21A2.21,2.21,0,0,0,37.79,0Z" />
  </svg><svg viewBox="0 0 40 40" id="twitter" class="sprite-symbol-usage">
    <path fill="#d9e8e5" d="M40,7.6a16.51,16.51,0,0,1-4.71,1.29A8.25,8.25,0,0,0,38.9,4.35a16.59,16.59,0,0,1-5.22,2,8.21,8.21,0,0,0-14,7.48A23.29,23.29,0,0,1,2.79,5.25a8.22,8.22,0,0,0,2.54,11,8.34,8.34,0,0,1-3.72-1v.1a8.23,8.23,0,0,0,6.58,8A8.53,8.53,0,0,1,6,23.61a8,8,0,0,1-1.55-.15,8.23,8.23,0,0,0,7.67,5.7A16.48,16.48,0,0,1,2,32.67a15.75,15.75,0,0,1-2-.12,23.12,23.12,0,0,0,12.58,3.7c15.09,0,23.34-12.51,23.34-23.35l0-1.06A16.53,16.53,0,0,0,40,7.6Z" />
  </svg><svg viewBox="0 0 40 40" id="youtube" class="sprite-symbol-usage">
    <path fill="#d9e8e5" d="M39.09,10.9a5,5,0,0,0-3.52-3.55C32.46,6.52,20,6.52,20,6.52s-12.46,0-15.57.83A5,5,0,0,0,.91,10.9C.08,14,.08,20.55.08,20.55s0,6.52.83,9.65a5,5,0,0,0,3.52,3.55c3.11.83,15.57.83,15.57.83s12.46,0,15.57-.83a5,5,0,0,0,3.52-3.55c.83-3.13.83-9.65.83-9.65S39.92,14,39.09,10.9ZM15.93,26.47V14.63l10.41,5.92Z" />
  </svg>
</svg>